<?xml version="1.0" standalone="no"?>
<!DOCTYPE svg PUBLIC "-//W3C//DTD SVG 20010904//EN"
 "http://www.w3.org/TR/2001/REC-SVG-20010904/DTD/svg10.dtd">
<svg version="1.0" xmlns="http://www.w3.org/2000/svg"
 viewBox="0 0 1254.000000 1254.000000"
 preserveAspectRatio="xMidYMid meet" width="24" height="24">

<g transform="translate(0.000000,1254.000000) scale(0.100000,-0.100000)"
fill="#000000" stroke="none">
<path d="M8815 11739 c-859 -61 -1639 -579 -2008 -1333 -332 -677 -327 -1416
15 -2113 120 -244 270 -447 490 -659 315 -304 669 -498 1100 -604 277 -68 623
-84 903 -41 619 94 1136 394 1526 886 263 331 441 759 505 1210 22 161 22 448
-1 620 -78 590 -392 1142 -870 1526 -296 238 -690 413 -1077 478 -107 19 -385
43 -443 39 -11 0 -74 -5 -140 -9z m396 -494 c553 -73 1036 -367 1347 -818 73
-106 177 -313 221 -438 174 -505 117 -1076 -158 -1571 -251 -452 -689 -788
-1196 -919 -457 -118 -949 -52 -1370 184 -547 306 -913 848 -996 1472 -17 130
-6 421 21 550 84 400 314 803 604 1056 424 372 1002 554 1527 484z"/>
<path d="M8002 10216 c-84 -21 -177 -74 -242 -138 -167 -166 -177 -371 -21
-450 60 -31 110 -35 174 -16 45 14 112 74 139 125 12 24 26 34 52 38 58 11 83
-1 120 -59 70 -110 180 -144 292 -92 78 36 124 110 124 200 0 106 -126 275
-256 343 -115 61 -257 79 -382 49z"/>
<path d="M9665 10206 c-88 -28 -148 -63 -207 -120 -177 -169 -189 -379 -27
-460 34 -17 69 -26 99 -26 64 0 145 42 179 93 45 68 67 87 103 87 43 0 67 -17
102 -72 120 -190 406 -113 406 110 0 48 -7 73 -36 132 -111 221 -382 333 -619
256z"/>
<path d="M7715 9234 c-82 -30 -145 -123 -145 -213 0 -98 101 -331 210 -483 34
-47 110 -133 168 -190 212 -205 435 -325 723 -390 89 -20 132 -23 294 -23 210
0 311 16 484 77 416 147 753 482 885 880 44 131 30 224 -45 295 -104 99 -276
79 -354 -40 -8 -12 -26 -58 -40 -102 -140 -431 -620 -717 -1075 -640 -224 37
-405 129 -561 284 -116 115 -205 269 -233 401 -9 45 -64 107 -118 134 -60 30
-129 33 -193 10z"/>
<path d="M3195 11269 c-147 -7 -207 -24 -316 -89 -129 -77 -246 -235 -284
-385 -22 -85 -22 -784 0 -865 30 -112 82 -199 174 -290 97 -96 188 -149 306
-176 39 -10 76 -18 83 -20 10 -3 12 -33 10 -125 l-3 -122 -81 -22 c-118 -32
-214 -70 -344 -136 -455 -230 -813 -615 -996 -1072 -50 -125 -106 -327 -126
-457 -19 -125 -19 -3855 0 -3980 100 -650 494 -1194 1069 -1477 l111 -54 12
-67 c41 -219 160 -446 324 -619 180 -191 392 -310 681 -384 66 -17 2451 -26
2591 -10 382 44 751 303 942 661 53 98 109 261 129 374 21 117 21 332 0 452
-46 261 -161 480 -351 669 -190 189 -413 306 -663 350 -125 22 -2449 22 -2593
1 -376 -57 -740 -309 -925 -640 -30 -54 -80 -168 -109 -249 -6 -18 -8 -17 -43
4 -198 117 -397 322 -521 534 -89 151 -163 382 -183 565 -6 62 -9 737 -7 1935
4 1840 4 1840 25 1933 115 497 406 873 847 1094 123 62 302 122 425 143 52 9
105 21 119 26 48 18 105 73 128 123 23 49 24 60 24 299 l0 247 1189 0 c874 0
1197 3 1222 12 65 22 116 65 144 123 55 111 16 244 -89 310 l-49 30 -1458 5
c-1453 5 -1458 5 -1485 26 -15 11 -37 33 -48 48 -20 27 -21 37 -18 364 3 369
3 364 65 402 31 20 63 20 1568 20 l1537 0 66 -25 c108 -41 193 -30 266 33 173
147 70 402 -190 472 -34 10 -399 13 -1545 14 -825 0 -1558 -2 -1630 -5z m1735
-9095 l0 -795 -507 3 c-566 4 -554 3 -708 77 -167 80 -294 205 -371 365 -65
136 -79 198 -79 356 0 114 4 147 23 210 54 172 160 326 290 422 94 70 253 135
367 151 17 2 245 5 508 6 l477 1 0 -796z m1509 776 c312 -75 540 -343 581
-683 19 -159 -7 -301 -83 -456 -77 -155 -202 -279 -362 -356 -148 -72 -177
-75 -715 -75 l-470 0 0 795 0 795 483 0 c448 0 488 -2 566 -20z"/>
<path d="M3671 7394 c-234 -39 -468 -157 -648 -328 -401 -378 -520 -941 -302
-1430 83 -187 234 -376 399 -499 44 -32 327 -191 680 -380 333 -178 790 -423
1015 -545 540 -291 617 -317 935 -317 157 0 186 3 284 28 253 64 476 200 649
397 74 84 115 147 170 256 95 189 135 342 144 549 12 296 -65 565 -227 790
-68 96 -199 226 -290 290 -107 74 -1079 587 -1911 1007 -221 112 -343 158
-483 183 -108 18 -301 18 -415 -1z m394 -478 c55 -14 313 -140 722 -353 l163
-84 -89 -172 c-257 -497 -400 -775 -506 -984 -65 -128 -122 -233 -128 -233 -5
0 -109 52 -231 116 -122 64 -298 157 -392 206 -95 49 -198 111 -230 136 -215
173 -324 474 -270 742 69 337 329 586 671 641 69 11 218 3 290 -15z m1494
-758 c97 -50 194 -101 216 -113 22 -12 130 -68 239 -126 161 -84 212 -116 269
-169 243 -224 315 -583 180 -898 -74 -172 -212 -324 -368 -403 -131 -67 -197
-83 -340 -84 -147 0 -230 19 -353 82 -188 97 -728 387 -740 398 -11 10 25 88
201 431 356 696 502 973 511 974 5 0 88 -41 185 -92z"/>
<path d="M8870 6745 c-60 -19 -113 -64 -139 -120 -21 -44 -21 -55 -21 -604 0
-468 2 -564 15 -594 52 -124 198 -181 320 -123 60 28 87 56 114 116 20 44 21
63 21 600 l0 555 -24 51 c-50 108 -166 156 -286 119z"/>
<path d="M10086 5860 c-229 -26 -450 -121 -645 -277 -123 -98 -1569 -1585
-1664 -1711 -117 -157 -213 -389 -243 -594 -110 -743 457 -1418 1191 -1418
280 0 548 96 771 277 79 64 1587 1638 1664 1736 122 158 215 375 246 579 20
128 13 334 -15 458 -105 466 -480 837 -940 930 -119 24 -261 31 -365 20z m272
-476 c242 -49 462 -242 548 -480 37 -101 57 -235 49 -324 -14 -147 -67 -294
-146 -402 -36 -50 -617 -658 -629 -658 -5 0 -10 4 -12 9 -1 4 -212 230 -468
502 -256 272 -486 516 -512 544 l-47 51 291 297 c314 321 374 371 520 427 132
51 268 62 406 34z m-1167 -1501 c206 -218 438 -464 517 -547 78 -83 141 -156
140 -162 -3 -11 -542 -580 -618 -652 -83 -79 -226 -154 -345 -183 -76 -18
-249 -15 -325 5 -307 80 -526 337 -570 667 -24 178 34 410 140 565 33 47 668
704 681 704 4 0 175 -178 380 -397z"/>
</g>
</svg>
