<?xml version="1.0" standalone="no"?>
<!DOCTYPE svg PUBLIC "-//W3C//DTD SVG 20010904//EN"
 "http://www.w3.org/TR/2001/REC-SVG-20010904/DTD/svg10.dtd">
<svg version="1.0" xmlns="http://www.w3.org/2000/svg"
 viewBox="0 0 100.000000 100.000000"
 preserveAspectRatio="xMidYMid meet" width="24" height="24">

<g transform="translate(0.000000,100.000000) scale(0.100000,-0.100000)"
fill="#000000" stroke="none">
<path d="M575 901 c-43 -19 -119 -95 -113 -113 3 -7 12 -16 21 -22 13 -9 24
-3 56 31 123 128 321 50 321 -127 0 -47 -6 -65 -35 -110 -51 -82 -58 -97 -52
-114 17 -44 70 6 132 124 23 44 25 150 3 201 -23 53 -72 104 -123 128 -57 27
-154 28 -210 2z"/>
<path d="M625 742 c-45 -9 -59 -47 -32 -87 7 -11 23 -36 35 -57 l22 -36 -62
19 c-109 34 -138 5 -99 -98 12 -31 20 -58 17 -60 -2 -2 -27 7 -55 21 -57 30
-83 32 -101 11 -15 -18 -6 -45 14 -45 7 0 48 -16 90 -36 124 -59 159 -31 112
86 -14 35 -24 65 -23 67 2 2 23 -4 47 -12 61 -22 117 -20 130 4 12 24 2 56
-41 118 l-31 45 78 -7 c72 -7 81 -5 98 14 16 17 17 23 6 36 -8 10 -23 14 -39
11 -14 -3 -53 -2 -86 2 -33 4 -69 6 -80 4z"/>
<path d="M322 640 c-24 -21 -67 -55 -95 -73 -110 -73 -151 -139 -150 -243 1
-190 198 -303 369 -213 120 62 289 210 282 245 -7 36 -37 26 -100 -33 -75 -70
-182 -147 -231 -168 -122 -51 -257 38 -257 169 0 80 30 129 114 185 39 27 91
67 116 89 38 34 43 43 34 59 -18 29 -36 25 -82 -17z"/>
<path d="M194 345 c-9 -21 3 -45 21 -45 9 0 42 -18 74 -39 72 -49 103 -58 125
-36 18 19 20 42 6 79 -11 31 -34 33 -53 6 -13 -19 -15 -18 -62 15 -51 37 -101
46 -111 20z"/>
</g>
</svg>
